/* XPM */
static char *brick_red_xpm[] = {
"64 64 4 1",
" 	c #8B0000",
".	c #A52A2A",
"X	c #CD5C5C",
"o	c #F08080",
"                                                                ",
"                                                                ",
" ...............XXXXXXXXXXXXXXXXXXXXXXXXXXXXXXXX............... ",
" ...............XXXXXXXXXXXXXXXXXXXXXXXXXXXXXXXX............... ",
" ...............XXXXXXXXXXXXXXXXXXXXXXXXXXXXXXXX............... ",
" ...............XXXXXXXXXXXXXXXXXXXXXXXXXXXXXXXX............... ",
"oooooooooooooooooooooooooooooooooooooooooooooooooooooooooooooooo",
"oooooooooooooooooooooooooooooooooooooooooooooooooooooooooooooooo",
"                                                                ",
"                                                                ",
" ...............XXXXXXXXXXXXXXXXXXXXXXXXXXXXXXXX............... ",
" ...............XXXXXXXXXXXXXXXXXXXXXXXXXXXXXXXX............... ",
" ...............XXXXXXXXXXXXXXXXXXXXXXXXXXXXXXXX............... ",
" ...............XXXXXXXXXXXXXXXXXXXXXXXXXXXXXXXX............... ",
"oooooooooooooooooooooooooooooooooooooooooooooooooooooooooooooooo",
"oooooooooooooooooooooooooooooooooooooooooooooooooooooooooooooooo",
"                                                                ",
"                                                                ",
" ...............XXXXXXXXXXXXXXXXXXXXXXXXXXXXXXXX............... ",
" ...............XXXXXXXXXXXXXXXXXXXXXXXXXXXXXXXX............... ",
" ...............XXXXXXXXXXXXXXXXXXXXXXXXXXXXXXXX............... ",
" ...............XXXXXXXXXXXXXXXXXXXXXXXXXXXXXXXX............... ",
"oooooooooooooooooooooooooooooooooooooooooooooooooooooooooooooooo",
"oooooooooooooooooooooooooooooooooooooooooooooooooooooooooooooooo",
"                                                                ",
"                                                                ",
" ...............XXXXXXXXXXXXXXXXXXXXXXXXXXXXXXXX............... ",
" ...............XXXXXXXXXXXXXXXXXXXXXXXXXXXXXXXX............... ",
" ...............XXXXXXXXXXXXXXXXXXXXXXXXXXXXXXXX............... ",
" ...............XXXXXXXXXXXXXXXXXXXXXXXXXXXXXXXX............... ",
"oooooooooooooooooooooooooooooooooooooooooooooooooooooooooooooooo",
"oooooooooooooooooooooooooooooooooooooooooooooooooooooooooooooooo",
"                                                                ",
"                                                                ",
" ...............XXXXXXXXXXXXXXXXXXXXXXXXXXXXXXXX............... ",
" ...............XXXXXXXXXXXXXXXXXXXXXXXXXXXXXXXX............... ",
" ...............XXXXXXXXXXXXXXXXXXXXXXXXXXXXXXXX............... ",
" ...............XXXXXXXXXXXXXXXXXXXXXXXXXXXXXXXX............... ",
"oooooooooooooooooooooooooooooooooooooooooooooooooooooooooooooooo",
"oooooooooooooooooooooooooooooooooooooooooooooooooooooooooooooooo",
"                                                                ",
"                                                                ",
" ...............XXXXXXXXXXXXXXXXXXXXXXXXXXXXXXXX............... ",
" ...............XXXXXXXXXXXXXXXXXXXXXXXXXXXXXXXX............... ",
" ...............XXXXXXXXXXXXXXXXXXXXXXXXXXXXXXXX............... ",
" ...............XXXXXXXXXXXXXXXXXXXXXXXXXXXXXXXX............... ",
"oooooooooooooooooooooooooooooooooooooooooooooooooooooooooooooooo",
"oooooooooooooooooooooooooooooooooooooooooooooooooooooooooooooooo",
"                                                                ",
"                                                                ",
" ...............XXXXXXXXXXXXXXXXXXXXXXXXXXXXXXXX............... ",
" ...............XXXXXXXXXXXXXXXXXXXXXXXXXXXXXXXX............... ",
" ...............XXXXXXXXXXXXXXXXXXXXXXXXXXXXXXXX............... ",
" ...............XXXXXXXXXXXXXXXXXXXXXXXXXXXXXXXX............... ",
"oooooooooooooooooooooooooooooooooooooooooooooooooooooooooooooooo",
"oooooooooooooooooooooooooooooooooooooooooooooooooooooooooooooooo",
"                                                                ",
"                                                                ",
" ...............XXXXXXXXXXXXXXXXXXXXXXXXXXXXXXXX............... ",
" ...............XXXXXXXXXXXXXXXXXXXXXXXXXXXXXXXX............... ",
" ...............XXXXXXXXXXXXXXXXXXXXXXXXXXXXXXXX............... ",
" ...............XXXXXXXXXXXXXXXXXXXXXXXXXXXXXXXX............... ",
"oooooooooooooooooooooooooooooooooooooooooooooooooooooooooooooooo",
"oooooooooooooooooooooooooooooooooooooooooooooooooooooooooooooooo"
};
