/* XPM */
static char *simple_xpm[] = {
"8 8 2 1",
"  c #FF0000",
". c #00FF00",
"        ",
"        ",
"  ....  ",
"  ....  ",
"  ....  ",
"  ....  ",
"        ",
"        "
};
